# xmcd
#
# Track frame offsets: 
#        150
#        20116
#        39953
#        56172
#        77323
#        102829
#        117451
#        137600
#        159388
#        178076
#
# Disc length: 2692 seconds
#
# Revision: 0
# Processed by: cddbd v1.5.2PL0 Copyright (c) Steve Scherf et al.
# Submitted via: ExactAudioCopy v0.95b4
#
DISCID=7b0a820a
DTITLE=Various Artist - Venus Vol. 3
DYEAR=2010
DGENRE=Alternative
TTITLE0=Alcides and Vanir - Si Ca Da Serto
TTITLE1=Janu - Vénus
TTITLE2=Celestino - É So Bo
TTITLE3=Ducoriginal - Hoji Mi É Tudo Di Bo
TTITLE4=Chando Graçiosa - Barata
TTITLE5=S - Mcre Fazi Amor Cu Bo
TTITLE6=Kidy and Susy - Bedja Na Kuartu
TTITLE7=Marlene Fortes - Trés Palavras Mágicas
TTITLE8=Janu - Tradiçon
TTITLE9=Vários - Batata, Nhos Ta Bendi?
EXTD=
EXTT0=Alcides and Vanir - Si Ca Da Serto
EXTT1=
EXTT2=
EXTT3=
EXTT4=
EXTT5=
EXTT6=
EXTT7=
EXTT8=
EXTT9=
PLAYORDER=
